<svg xmlns="http://www.w3.org/2000/svg" viewBox="0 0 283.46 79.37"><defs><style>.cls-1,.cls-2{fill:#f03228;}.cls-1{fill-rule:evenodd;}</style></defs><title>BT_100_mm_rgb</title><g id="Nyt"><path class="cls-1" d="M254.12,68.77c-18,0-22.5-5.88-22.5-18.82,0-4.07,0-40.5,0-40.5C256.87,14.58,264,45,264,45h7.91V0H147.09V45H155s7.17-30.53,32.36-35.58c0,0,0,36.43,0,40.5,0,12.76-4.16,18.82-22.5,18.82v9.3h89.25Z"/><rect class="cls-2" x="137.95" y="64.59" width="12.24" height="12.24" transform="translate(-7.8 122.59) rotate(-45)"/><rect class="cls-2" x="268.69" y="64.59" width="12.24" height="12.24" transform="translate(30.49 215.03) rotate(-45)"/><path class="cls-1" d="M91.17,39.2V35.52c23,0,34.05-3.67,34.05-17.26C125.22,4,114.65,0,88.42,0H0V9.2H7C12.8,9.2,16,11.9,16,19.55V58.44c0,7.72-3.12,10.35-9.28,10.35H0V78H88.61c19.94,0,37.36-1,37.36-19.9C126,45.5,117.48,39.2,91.17,39.2ZM57.68,10.1H70.54c3.28,0,10.91.71,10.91,11.1S73.82,32.3,70.54,32.3H57.68ZM70.5,68H57.68V42.43H70.5c3.77,0,12.55.82,12.55,12.77S74.27,68,70.5,68Z"/></g></svg>
