<?xml version="1.0" encoding="UTF-8"?>
<svg width="24px" height="24px" viewBox="0 0 24 24" version="1.1" xmlns="http://www.w3.org/2000/svg" xmlns:xlink="http://www.w3.org/1999/xlink">
    <title>icon / positive / pin</title>
    <g id="icon-/-positive-/-pin" stroke="none" stroke-width="1" fill="none" fill-rule="evenodd">
        <path d="M12,23 C12,23 4,13.5005 4,9.05 C4,7.99286 4.20692571,6.94607 4.60896398,5.9694 C5.01100124,4.99273 5.60027826,4.1053 6.34314534,3.35779 C7.08601242,2.61028 7.96793043,2.01732 8.93853416,1.61277 C9.90913789,1.208219 10.9494261,1 12,1 C13.0505739,1 14.0908323,1.208219 15.0614658,1.61277 C16.0320994,2.01732 16.9139876,2.61028 17.6568447,3.35779 C18.3997019,4.1053 18.9890186,4.99273 19.3910062,5.9694 C19.7930932,6.94607 20,7.99286 20,9.05 C20,13.5005 12,23 12,23 Z M12,13.05 C13.0542803,13.05 14.0653697,12.6286087 14.8108496,11.8784174 C15.5563813,11.1282783 15.9751553,10.1108696 15.9751553,9.05 C15.9751553,7.98913043 15.5563813,6.97172174 14.8108496,6.22156522 C14.0653697,5.47142609 13.0542803,5.05 12,5.05 C10.9457197,5.05 9.9346303,5.47142609 9.18913314,6.22156522 C8.44365325,6.97172174 8.02484472,7.98913043 8.02484472,9.05 C8.02484472,10.1108696 8.44365325,11.1282783 9.18913314,11.8784174 C9.9346303,12.6286087 10.9457197,13.05 12,13.05 Z" id="Pin" fill="#F03228" fill-rule="nonzero"></path>
    </g>
</svg>